<svg xmlns="http://www.w3.org/2000/svg" viewBox="0 0 30.92 44.44"><defs><style>.cls-1{fill:#c778dd;}</style></defs><title>Icon</title><g id="Layer_2" data-name="Layer 2"><g id="Layer_1-2" data-name="Layer 1"><path class="cls-1" d="M29,44.44H21.39a.58.58,0,0,1-.49-.25.59.59,0,0,1-.1-.53L24,28.58h0a1.35,1.35,0,0,0-.19-1.2,1.33,1.33,0,0,0-1.08-.55H9V44.44H0V0H9L8.9,21,23,21A7.86,7.86,0,0,1,28.77,23a7,7,0,0,1,1.78,5.22v0ZM24.48,28.71,21.31,43.79h0a.07.07,0,0,0,0,.08.07.07,0,0,0,.07,0h7.15L30,28.24A6.54,6.54,0,0,0,28.4,23.4,7.39,7.39,0,0,0,23,21.49l-14.59.05.11-21h-8V43.92h8V26.3H22.71a1.85,1.85,0,0,1,1.77,2.41Z"/><path class="cls-1" d="M16.1,19.87H9.89L21.17,0h9.75L21.39,16.79A6.1,6.1,0,0,1,16.1,19.87Zm-5.31-.52H16.1a5.58,5.58,0,0,0,4.84-2.82L30,.52H21.47Z"/></g></g></svg>